<svg width="352" height="610" viewBox="0 0 352 610" fill="none" xmlns="http://www.w3.org/2000/svg">
<path d="M172.519 206.586C185.635 181.4 217.067 172.18 241.71 186.288L284.143 210.583C308.814 224.708 316.759 256.533 301.624 280.596L109.264 586.419C94.9903 609.112 65.36 616.509 42.0956 603.189L25.1649 593.496C1.87366 580.16 -6.73501 550.815 5.661 527.01L172.519 206.586Z" fill="#D9D9D9"/>
<path d="M204.14 78.0024C212.077 28.8627 251.103 -5.70942 291.308 0.783605C331.514 7.27671 357.673 52.3763 349.737 101.516C341.801 150.656 302.774 185.228 262.569 178.735C222.364 172.241 196.204 127.142 204.14 78.0024Z" fill="#D9D9D9"/>
</svg>
